<svg width="32" height="32" viewBox="0 0 32 32" fill="none" xmlns="http://www.w3.org/2000/svg">
<path d="M17.3333 17.3333C18.7478 17.3333 20.1044 17.8952 21.1046 18.8954C22.1048 19.8956 22.6667 21.2522 22.6667 22.6667V24.6667C22.6667 25.1971 22.4559 25.7058 22.0809 26.0809C21.7058 26.456 21.1971 26.6667 20.6667 26.6667H4.66666C4.13622 26.6667 3.62752 26.456 3.25244 26.0809C2.87737 25.7058 2.66666 25.1971 2.66666 24.6667V22.6667C2.66666 21.2522 3.22856 19.8956 4.22875 18.8954C5.22895 17.8952 6.5855 17.3333 7.99999 17.3333H17.3333ZM25.3333 17.3333C26.3942 17.3333 27.4116 17.7548 28.1618 18.5049C28.9119 19.2551 29.3333 20.2725 29.3333 21.3333V23.3333C29.3333 23.8638 29.1226 24.3725 28.7475 24.7475C28.3725 25.1226 27.8638 25.3333 27.3333 25.3333H25.3333V22.6667C25.3342 21.6316 25.0936 20.6105 24.6306 19.6847C24.1677 18.7588 23.4952 17.9537 22.6667 17.3333H25.3333ZM12.6667 4C14.258 4 15.7841 4.63214 16.9093 5.75736C18.0345 6.88258 18.6667 8.4087 18.6667 10C18.6667 11.5913 18.0345 13.1174 16.9093 14.2426C15.7841 15.3679 14.258 16 12.6667 16C11.0754 16 9.54923 15.3679 8.42402 14.2426C7.2988 13.1174 6.66666 11.5913 6.66666 10C6.66666 8.4087 7.2988 6.88258 8.42402 5.75736C9.54923 4.63214 11.0754 4 12.6667 4ZM24 8C25.0609 8 26.0783 8.42143 26.8284 9.17157C27.5786 9.92172 28 10.9391 28 12C28 13.0609 27.5786 14.0783 26.8284 14.8284C26.0783 15.5786 25.0609 16 24 16C22.9391 16 21.9217 15.5786 21.1716 14.8284C20.4214 14.0783 20 13.0609 20 12C20 10.9391 20.4214 9.92172 21.1716 9.17157C21.9217 8.42143 22.9391 8 24 8Z" fill="#292929"/>
</svg>
