<svg width="32" height="32" viewBox="0 0 32 32" fill="none" xmlns="http://www.w3.org/2000/svg">
<path d="M26.115 27.9999C25.9831 28.0001 25.8525 27.9742 25.7307 27.9235C25.609 27.8729 25.4985 27.7986 25.4056 27.7049L2.54062 4.70365C2.35364 4.51552 2.24906 4.26081 2.24988 3.99556C2.2507 3.73031 2.35686 3.47626 2.545 3.28928C2.73313 3.1023 2.98784 2.99772 3.25309 2.99854C3.51834 2.99936 3.77239 3.10552 3.95937 3.29365L26.8237 26.2937C26.9634 26.4337 27.0584 26.6119 27.0968 26.8059C27.1351 26.9999 27.1151 27.2009 27.0393 27.3835C26.9634 27.5661 26.8351 27.7222 26.6706 27.8319C26.5061 27.9416 26.3127 28.0001 26.115 27.9999ZM22.8075 4.9999C19.8019 4.9999 17.8075 6.84678 16.75 8.1874C15.695 6.8449 13.6981 4.9999 10.6925 4.9999C10.0362 4.99945 9.38345 5.09526 8.755 5.28428L10.5 6.9999C11.8912 6.9999 13.3631 7.5624 14.4962 8.66678C15.0338 9.19038 15.4918 9.78986 15.8556 10.4462C15.9388 10.6119 16.0665 10.7513 16.2243 10.8486C16.3821 10.946 16.5639 10.9976 16.7494 10.9976C16.9348 10.9976 17.1166 10.946 17.2745 10.8486C17.4323 10.7513 17.5599 10.6119 17.6431 10.4462C18.0072 9.7889 18.4656 9.18856 19.0037 8.66428C20.1369 7.5624 21.4162 6.9999 22.8075 6.9999C25.5044 6.9999 27.7212 9.27053 27.7494 12.0624C27.7831 15.418 26.3275 18.2843 24.1631 20.7824L25.5775 22.2055C25.765 21.9905 25.9337 21.7905 26.0862 21.6055C28.5862 18.5587 29.7831 15.4305 29.7494 12.043C29.7106 8.1574 26.5962 4.9999 22.8075 4.9999ZM16.75 26.9999C11.2737 23.2818 5.6875 18.5999 5.75 12.0624C5.75398 11.6753 5.80094 11.2898 5.89 10.913L4.3125 9.32115C3.95032 10.1821 3.75926 11.1053 3.75 12.0393C3.71625 15.428 4.91437 18.5562 7.41312 21.6018C8.58625 23.0312 10.7131 25.3174 15.625 28.6518C15.9562 28.8788 16.3484 29.0003 16.75 29.0003C17.1516 29.0003 17.5438 28.8788 17.875 28.6518C19.1469 27.7887 20.2312 26.9955 21.1612 26.2699L19.745 24.8443C18.7656 25.5999 17.7556 26.3155 16.75 26.9999Z" fill="#292929"/>
</svg>
