<svg width="24" height="24" viewBox="0 0 24 24" fill="none" xmlns="http://www.w3.org/2000/svg">
<path d="M23.7277 17.5323C23.034 16.4292 22.0027 13.3079 22.0027 9.23117C22.0027 6.78291 20.9491 4.43493 19.0738 2.70375C17.1984 0.972567 14.6549 0 12.0027 0C9.35054 0 6.807 0.972567 4.93163 2.70375C3.05627 4.43493 2.0027 6.78291 2.0027 9.23117C2.0027 13.309 0.970201 16.4292 0.276451 17.5323C0.0992897 17.8127 0.00536951 18.1314 0.00416218 18.456C0.00295485 18.7806 0.0945033 19.0998 0.269575 19.3814C0.444647 19.663 0.697051 19.8969 1.00133 20.0597C1.30562 20.2225 1.65102 20.3083 2.0027 20.3086H7.10395C7.33467 21.3507 7.94823 22.2873 8.84087 22.96C9.7335 23.6326 10.8504 24 12.0027 24C13.155 24 14.2719 23.6326 15.1645 22.96C16.0572 22.2873 16.6707 21.3507 16.9015 20.3086H22.0027C22.3543 20.3081 22.6995 20.2221 23.0036 20.0593C23.3077 19.8964 23.56 19.6624 23.7349 19.3809C23.9098 19.0994 24.0013 18.7803 24 18.4557C23.9987 18.1312 23.9048 17.8127 23.7277 17.5323ZM12.0027 22.1548C11.3825 22.1546 10.7776 21.977 10.2712 21.6464C9.76484 21.3157 9.38194 20.8484 9.1752 20.3086H14.8302C14.6235 20.8484 14.2406 21.3157 13.7342 21.6464C13.2278 21.977 12.6229 22.1546 12.0027 22.1548Z" fill="#292929"/>
</svg>
