<svg width="32" height="32" viewBox="0 0 32 32" fill="none" xmlns="http://www.w3.org/2000/svg">
<path d="M16.3568 27.654L16.3553 27.6548C16.2461 27.7136 16.124 27.7443 16 27.7443C15.876 27.7443 15.7539 27.7136 15.6447 27.6548L15.6432 27.6541C15.3754 27.5123 12.0127 25.679 8.72064 22.796C5.41547 19.9015 2.25007 16.0081 2.25 11.7501C2.25228 9.76168 3.0432 7.85531 4.44926 6.44926C5.85531 5.0432 7.76168 4.25228 9.75014 4.25C12.2583 4.25004 14.4418 5.32736 15.8001 7.13636L16 7.40262L16.1999 7.13636C17.5582 5.32736 19.7417 4.25004 22.2499 4.25C24.2383 4.25228 26.1447 5.0432 27.5507 6.44926C28.9568 7.85535 29.7478 9.76177 29.75 11.7503C29.7499 16.0082 26.5845 19.9015 23.2794 22.796C19.9873 25.679 16.6246 27.5123 16.3568 27.654Z" fill="#ED3838" stroke="#292929" stroke-width="0.5"/>
</svg>
