<svg width="24" height="24" viewBox="0 0 24 24" fill="none" xmlns="http://www.w3.org/2000/svg">
<path d="M9.11251 21.0093V20.3718C9.12657 20.3203 9.15001 20.2734 9.15939 20.2218C9.36564 18.8812 10.4813 17.8218 11.789 17.7328C13.2515 17.6296 14.489 18.464 14.8922 19.8234C14.9437 20.0015 14.9812 20.189 15.0281 20.3718V21.0093C15.014 21.0515 14.9906 21.089 14.9859 21.1358C14.7844 22.3733 13.8937 23.3155 12.675 23.5827C12.5812 23.6015 12.4875 23.6296 12.3937 23.653H11.7562C11.7141 23.639 11.6719 23.6155 11.6297 23.6108C10.4109 23.414 9.48282 22.5468 9.20155 21.3421C9.17343 21.2249 9.14064 21.1171 9.11251 21.0093ZM15.0281 2.9906L15.0281 3.62815C15.014 3.67971 14.9906 3.72659 14.9859 3.77815C14.775 5.12815 13.6547 6.18284 12.3328 6.26721C10.875 6.36096 9.64217 5.51721 9.24374 4.15315C9.19217 3.97969 9.15468 3.80159 9.11249 3.62813V2.99062C9.12655 2.94844 9.14999 2.91094 9.15936 2.86875C9.38436 1.65 10.0922 0.853125 11.2734 0.473438C11.4281 0.421875 11.5922 0.39375 11.7515 0.351562H12.3891C12.4312 0.365625 12.4734 0.389063 12.5156 0.39375C13.7391 0.595313 14.6625 1.45781 14.9437 2.6625C14.9719 2.775 15 2.88281 15.0281 2.9906ZM15.0281 11.6812V12.3188C15.014 12.3703 14.9906 12.4172 14.9812 12.4688C14.7703 13.8141 13.6078 14.8969 12.2953 14.9531C10.8187 15.0187 9.56718 14.1281 9.21561 12.7547C9.17811 12.6094 9.1453 12.4641 9.11249 12.3188V11.6812C9.12655 11.6297 9.14999 11.5828 9.15936 11.5312C9.36561 10.1859 10.5328 9.1031 11.8453 9.04219C13.3219 8.97187 14.5734 9.86719 14.925 11.2406C14.9625 11.3906 14.9953 11.5359 15.0281 11.6812Z" fill="#292929"/>
</svg>
