<svg width="577" height="509" viewBox="0 0 577 509" fill="none" xmlns="http://www.w3.org/2000/svg">
<path fill-rule="evenodd" clip-rule="evenodd" d="M452.251 159.26C476.657 159.26 496.442 139.474 496.442 115.068C496.442 90.6608 476.657 70.875 452.251 70.875C427.846 70.875 408.061 90.6608 408.061 115.068C408.061 139.474 427.846 159.26 452.251 159.26Z" fill="#292929"/>
<path fill-rule="evenodd" clip-rule="evenodd" d="M452.251 82.5485C453.633 82.5485 454.753 81.4286 454.753 80.0471C454.753 78.6655 453.633 77.5456 452.251 77.5456C450.87 77.5456 449.75 78.6655 449.75 80.0471C449.75 81.4286 450.87 82.5485 452.251 82.5485Z" fill="black" fill-opacity="0.1"/>
<path fill-rule="evenodd" clip-rule="evenodd" d="M417.232 117.569C418.614 117.569 419.734 116.449 419.734 115.068C419.734 113.686 418.614 112.566 417.232 112.566C415.851 112.566 414.731 113.686 414.731 115.068C414.731 116.449 415.851 117.569 417.232 117.569Z" fill="black" fill-opacity="0.1"/>
<path fill-rule="evenodd" clip-rule="evenodd" d="M487.27 117.569C488.652 117.569 489.772 116.449 489.772 115.068C489.772 113.686 488.652 112.566 487.27 112.566C485.889 112.566 484.769 113.686 484.769 115.068C484.769 116.449 485.889 117.569 487.27 117.569Z" fill="black" fill-opacity="0.1"/>
<path fill-rule="evenodd" clip-rule="evenodd" d="M452.251 152.59C453.633 152.59 454.753 151.47 454.753 150.088C454.753 148.707 453.633 147.587 452.251 147.587C450.87 147.587 449.75 148.707 449.75 150.088C449.75 151.47 450.87 152.59 452.251 152.59Z" fill="black" fill-opacity="0.1"/>
<path fill-rule="evenodd" clip-rule="evenodd" d="M452.251 85.05L453.919 114.234H450.584L452.251 85.05Z" fill="#F5F5F5"/>
<path fill-rule="evenodd" clip-rule="evenodd" d="M467.008 129.825L451.679 116.854L454.037 114.496L467.008 129.825Z" fill="#F5F5F5"/>
<path fill-rule="evenodd" clip-rule="evenodd" d="M452.251 118.403C454.093 118.403 455.586 116.91 455.586 115.068C455.586 113.226 454.093 111.732 452.251 111.732C450.41 111.732 448.916 113.226 448.916 115.068C448.916 116.91 450.41 118.403 452.251 118.403Z" fill="#10436A"/>
<g opacity="0.345889">
<path fill-rule="evenodd" clip-rule="evenodd" d="M405.388 347.192C399.639 282.946 91.1929 158.947 33.9314 219.798C-23.3303 280.65 31.7197 394.853 151.719 424.097C271.719 453.342 411.136 411.437 405.388 347.192Z" fill="#292929"/>
<path fill-rule="evenodd" clip-rule="evenodd" d="M214.743 388.935C219.892 334.357 496.185 229.014 547.478 280.71C598.771 332.405 585.788 441.142 478.297 465.986C370.806 490.83 209.594 443.514 214.743 388.935Z" fill="#5AA9E6"/>
</g>
<path fill-rule="evenodd" clip-rule="evenodd" d="M49.1169 174.83C68.6875 174.83 84.5527 166.431 84.5527 156.069C84.5527 145.708 68.6875 137.308 49.1169 137.308C29.5462 137.308 13.6811 145.708 13.6811 156.069C13.6811 166.431 29.5462 174.83 49.1169 174.83Z" fill="#292929"/>
<path fill-rule="evenodd" clip-rule="evenodd" d="M90.3892 168.994C90.3892 145.968 71.9109 127.302 49.1169 127.302C26.3228 127.302 7.84459 145.968 7.84459 168.994" fill="#5AA9E6"/>
<path d="M51.2013 0H47.0324V133.412H51.2013V0Z" fill="#5AA9E6"/>
<g opacity="0.7">
<path fill-rule="evenodd" clip-rule="evenodd" d="M113.735 132.578C128.364 132.578 140.223 125.799 140.223 117.437C140.223 109.076 128.364 102.297 113.735 102.297C99.1064 102.297 87.2475 109.076 87.2475 117.437C87.2475 125.799 99.1064 132.578 113.735 132.578Z" fill="#292929"/>
<path fill-rule="evenodd" clip-rule="evenodd" d="M144.585 127.868C144.585 109.286 130.774 94.2221 113.735 94.2221C96.6968 94.2221 82.8851 109.286 82.8851 127.868" fill="#5AA9E6"/>
<path d="M116.236 0H112.068V113.4H116.236V0Z" fill="#5AA9E6"/>
</g>
<path d="M473.93 195.311L489.411 179.822C492.016 177.217 496.241 177.217 498.847 179.822L540.062 221.057C542.563 223.56 543.968 226.952 543.968 230.489V503.629" stroke="#CBCBCB" stroke-width="8"/>
<path d="M565.646 502.796H521.455C520.074 502.796 518.954 503.916 518.954 505.297V506.131C518.954 507.512 520.074 508.632 521.455 508.632H565.646C567.027 508.632 568.147 507.512 568.147 506.131V505.297C568.147 503.916 567.027 502.796 565.646 502.796Z" fill="#F5F5F5"/>
<path d="M444.33 186.222C455.075 175.476 472.496 175.476 483.241 186.222C493.986 196.967 493.986 214.389 483.241 225.136L466.733 241.645L427.822 202.731L444.33 186.222Z" fill="#10436A"/>
<path fill-rule="evenodd" clip-rule="evenodd" d="M444.104 225.572C454.849 236.317 465.275 243.313 467.392 241.196C469.508 239.08 462.514 228.653 451.768 217.907C441.023 207.161 430.596 200.166 428.479 202.282C426.363 204.399 433.359 214.826 444.104 225.572Z" fill="#292929"/>
<path fill-rule="evenodd" clip-rule="evenodd" d="M39.7435 310.327C42.1319 310.035 44.6811 310.138 46.9023 311.08C51.6253 313.086 52.9679 318.666 52.9031 323.202C52.8333 328.083 51.7968 333.415 55.5079 337.348C57.2139 339.156 59.336 340.54 61.0112 342.382C62.8011 344.35 64.2055 346.601 65.2454 349.019C67.1549 353.46 68.092 358.683 66.3459 363.342C64.8086 367.444 60.9409 371.147 61.7766 375.811C62.6484 380.676 67.5537 384.396 70.6202 388.021C74.0912 392.121 77.2871 397.364 77.8124 402.742C78.3152 407.896 76.0714 413.11 72.6288 417.006C65.749 424.792 55.408 428.609 44.981 428.585C40.5539 428.575 35.5417 428.375 31.7213 425.996C30.5405 425.261 29.9176 424.435 29.2157 423.289C28.5864 422.26 27.755 421.591 26.7927 420.863C24.6786 419.265 23.1518 417.111 22.1774 414.7C18.3938 405.333 21.4179 393.746 26.7141 385.429C27.9691 383.459 28.9965 381.562 28.3869 379.214C27.7507 376.761 26.187 374.55 24.804 372.443C23.4373 370.359 21.8771 368.372 20.8089 366.121C19.6902 363.761 19.3752 361.291 19.5728 358.709C19.9443 353.859 22.0378 349.383 25.0019 345.483C27.8568 341.726 31.209 338.13 31.2165 333.208C31.2247 327.99 27.7368 323.349 29.2227 318.044C29.838 315.848 31.0738 313.594 33.0654 312.278C34.9753 311.015 37.4972 310.601 39.7435 310.327Z" fill="#5AA9E6"/>
<path fill-rule="evenodd" clip-rule="evenodd" d="M38.1828 318.667C38.2276 317.967 39.0587 317.547 39.7131 317.729C40.5744 317.97 40.5578 318.775 40.535 319.492C40.4653 321.696 40.7843 323.838 41.3141 325.977C42.4151 330.423 44.4499 334.518 46.0621 338.789C47.6728 343.056 48.4288 347.462 47.484 351.977C46.5932 356.234 45.1938 360.381 44.2822 364.644C43.4787 368.401 42.6236 372.363 43.8473 376.11C45.0248 379.717 47.6279 382.655 49.5025 385.914C53.3829 392.663 55.1045 400.149 55.3347 407.852C55.4415 411.429 55.3454 415.04 54.5156 418.549C54.0379 420.569 53.396 423.299 51.6648 424.694C50.8666 425.338 49.5013 425.559 48.8294 424.607C48.1986 423.714 48.752 422.331 48.9522 421.379C49.8195 417.256 49.9939 413.044 49.7863 408.859C49.5854 404.805 49.1064 400.757 47.8305 396.885C46.6463 393.292 44.8472 390.064 42.7299 386.921C40.5724 383.718 38.3294 380.508 37.4379 376.712C36.5322 372.858 37.268 368.935 38.2519 365.154C39.2925 361.155 40.6555 357.27 42.0645 353.379C43.4377 349.587 43.9244 345.999 43.1663 342.031C41.6689 334.191 37.6605 326.832 38.1828 318.667Z" fill="#10436A"/>
<path fill-rule="evenodd" clip-rule="evenodd" d="M102.806 319.84C105.762 320.738 108.697 322.185 110.804 324.456C115.284 329.284 113.909 336.582 111.436 341.912C108.774 347.649 104.74 353.415 107.015 359.997C108.06 363.023 109.817 365.764 110.809 368.813C111.868 372.072 112.325 375.466 112.267 378.866C112.159 385.111 110.498 391.776 105.988 396.377C102.016 400.429 95.5236 402.795 94.0387 408.745C92.4886 414.953 96.2765 421.905 97.9583 427.786C99.861 434.442 100.839 442.304 98.612 448.938C96.4783 455.296 91.0912 460.294 84.9929 463.111C72.8089 468.739 58.6626 467.873 46.4453 462.42C41.2583 460.105 35.485 457.261 32.2615 452.46C31.2653 450.976 30.9708 449.676 30.7536 447.955C30.559 446.411 29.9375 445.188 29.1935 443.826C27.5586 440.836 26.9064 437.494 27.0381 434.135C27.5507 421.09 37.2218 408.96 47.8297 401.88C50.3432 400.202 52.5505 398.494 53.0769 395.399C53.6265 392.168 52.9613 388.739 52.453 385.527C51.9509 382.353 51.1712 379.192 51.1086 375.973C51.0433 372.601 51.9796 369.515 53.5761 366.565C56.5753 361.022 61.3964 356.818 66.9345 353.747C72.2686 350.79 78.1009 348.281 80.7115 342.464C83.4788 336.298 81.8404 328.994 86.387 323.493C88.2697 321.216 90.9103 319.193 93.9428 318.672C96.8502 318.173 100.026 318.996 102.806 319.84Z" fill="#5AA9E6"/>
<path fill-rule="evenodd" clip-rule="evenodd" d="M96.7685 330.037C97.1879 329.23 98.3802 329.168 99.0497 329.727C99.9302 330.464 99.4891 331.408 99.0872 332.245C97.8516 334.819 97.1028 337.523 96.6025 340.333C95.562 346.175 95.7963 352.092 95.4444 357.995C95.0934 363.892 93.6701 369.506 90.2008 374.358C86.929 378.933 83.1211 383.11 79.8226 387.68C76.9161 391.708 73.8411 395.952 73.31 401.031C72.7972 405.919 74.303 410.763 74.7874 415.606C75.7913 425.631 73.8836 435.398 70.1186 444.642C68.3699 448.935 66.3668 453.16 63.5589 456.879C61.9425 459.022 59.7621 461.919 57.0073 462.663C55.7371 463.006 54.0241 462.554 53.7373 461.074C53.4677 459.685 54.839 458.338 55.5718 457.315C58.7446 452.888 61.1547 447.991 63.1039 442.925C64.9921 438.019 66.5516 432.975 67.0874 427.721C67.5845 422.845 67.171 418.08 66.3413 413.248C65.496 408.324 64.5543 403.346 65.4996 398.385C66.4593 393.345 69.3739 389.085 72.5045 385.123C75.8155 380.932 79.4441 377.047 83.1294 373.177C86.7205 369.406 89.1685 365.413 90.3608 360.317C92.7154 350.247 91.8825 339.431 96.7685 330.037Z" fill="#10436A"/>
<path fill-rule="evenodd" clip-rule="evenodd" d="M11.4349 356.876C16.3494 356.876 20.6701 359.481 23.6474 363.179C27.1325 367.506 27.8364 372.791 29.2516 377.949C29.9558 380.515 31.1669 383.064 33.2895 384.808C35.22 386.394 37.6708 386.711 39.9815 387.486C44.5996 389.035 48.3287 392.765 49.8014 397.316C51.5981 402.869 49.695 408.468 50.0227 414.095C50.3235 419.262 55.4183 422.486 59.5173 424.963C63.5593 427.406 67.2005 429.693 68.4179 434.451C69.7088 439.498 70.1419 445.132 68.3539 450.117C65.3769 458.419 56.6647 462.074 48.2465 462.64C40.6066 463.155 31.0003 462.348 25.2629 456.802C21.8296 453.483 20.5864 448.841 20.7406 444.224C20.8364 441.352 21.4052 438.507 22.1406 435.732C22.6618 433.766 23.3661 431.807 23.5667 429.775C24.1 424.368 19.1028 423.33 14.8492 421.845C9.44403 419.959 5.65999 416.395 3.02865 411.429C0.578163 406.807 -0.449977 401.618 1.01898 396.528C1.76922 393.929 3.13004 391.572 4.97554 389.567C5.78798 388.683 6.93293 387.947 7.66624 387.02C8.35061 386.154 8.20161 385.031 7.96574 384.017C6.87515 379.332 3.47723 375.452 2.26199 370.775C1.1649 366.553 1.81341 361.299 5.67291 358.576C7.3404 357.399 9.39676 356.89 11.4349 356.876Z" fill="#10436A"/>
<path fill-rule="evenodd" clip-rule="evenodd" d="M18.1316 369.084C23.3405 374.634 24.7563 382.162 25.1719 389.459C25.4046 393.551 25.1624 397.866 26.3644 401.835C27.393 405.232 29.8042 407.829 32.2897 410.284C37.2928 415.223 42.8725 420.246 44.3359 427.396C45.1945 431.592 44.615 435.926 45.8014 440.075C46.8803 443.848 48.7797 447.553 51.09 450.738C52.9502 453.304 55.3738 455.268 57.4072 457.658C58.0276 458.389 58.9163 459.463 58.6602 460.493C58.3606 461.7 56.8236 462.082 55.7331 461.892C53.1907 461.45 51.0505 459.022 49.3881 457.257C46.9572 454.676 44.8915 451.901 43.2126 448.786C41.3487 445.328 39.848 441.659 39.2067 437.779C38.5413 433.754 38.8724 429.559 37.353 425.696C34.796 419.196 28.5941 415.361 24.1102 410.295C18.5234 403.983 19.3566 396.126 19.9289 388.361C20.2432 384.093 20.5557 379.275 18.3995 375.378C17.5765 373.891 15.7414 372.505 15.3876 370.814C15.0634 369.265 16.8325 367.7 18.1316 369.084Z" fill="#F5F5F5"/>
<path fill-rule="evenodd" clip-rule="evenodd" d="M23.6868 460.271C23.6868 492.004 28.8653 508.632 56.2041 508.632C83.543 508.632 88.7216 492.004 88.7216 460.271H23.6868Z" fill="#89C5CC"/>
<path d="M166.264 414.41H137.915C136.994 414.41 136.247 415.157 136.247 416.078V420.247C136.247 421.168 136.994 421.915 137.915 421.915H166.264C167.184 421.915 167.931 421.168 167.931 420.247V416.078C167.931 415.157 167.184 414.41 166.264 414.41Z" fill="#F5F5F5"/>
<path fill-rule="evenodd" clip-rule="evenodd" d="M150.603 353.541H152.089H152.923H154.41C154.841 366.398 156.848 378.627 160.427 390.229H165.847C172.984 390.229 178.77 396.016 178.77 403.154C178.77 410.291 172.984 416.078 165.847 416.078H138.332C131.195 416.078 125.408 410.291 125.408 403.154C125.408 396.016 131.195 390.229 138.332 390.229H144.585C149.955 372.826 150.603 353.541 150.603 353.541Z" fill="#5AA9E6"/>
<path fill-rule="evenodd" clip-rule="evenodd" d="M122.592 295.74C122.592 295.74 136.923 294.34 151.255 294.34C165.587 294.34 179.919 295.74 179.919 295.74L183.773 361.99C183.773 361.99 167.514 363.547 151.255 363.547C134.997 363.547 118.738 361.99 118.738 361.99L122.592 295.74Z" fill="#10436A"/>
<path fill-rule="evenodd" clip-rule="evenodd" d="M99.5608 508.632V440.259V421.915H117.07H186.274H203.784V440.259V508.632H186.274V440.259H117.07V508.632H99.5608Z" fill="#292929"/>
<path fill-rule="evenodd" clip-rule="evenodd" d="M448.4 273.668C455.765 291.169 468.284 303.329 474.915 321.527C478.847 332.318 480.487 344.052 480.586 356.069C480.64 362.597 480.526 369.129 480.496 375.656C480.466 382.021 480.293 388.346 479.753 394.671C479.209 401.029 478.601 407.312 478.334 413.709C478.125 418.694 478.029 424.492 476.34 429.039C474.996 432.655 471.581 433.185 470.675 428.799C470.172 426.361 470.235 423.639 470.291 421.133C470.362 417.919 470.549 414.71 470.645 411.495C471.027 398.598 470.53 385.698 470.791 372.796C471.044 360.189 472.664 347.597 470.871 335.075C469.391 324.734 465.63 315.854 461.308 307.342C457.149 299.152 452.622 291.16 449.813 281.844C449.005 279.169 448.382 276.397 448.082 273.519C448.213 273.458 448.319 273.507 448.4 273.668Z" fill="#C1DEE2"/>
<path fill-rule="evenodd" clip-rule="evenodd" d="M446.393 308.195C447.852 309.248 448.666 310.789 449.652 312.309C450.877 314.199 452.319 315.905 453.545 317.796C456.099 321.739 458.345 325.924 460.674 330.027C465.097 337.813 468.454 346.113 470.117 355.121C471.841 364.458 472.306 374.093 473.028 383.569C473.796 393.611 474.568 403.727 474.669 413.809C474.715 418.326 474.959 423.12 474.417 427.606C474.079 430.397 472.819 432.777 469.978 432.754C463.945 432.706 461.112 426.023 459.929 420.542C458.187 412.471 457.839 403.898 458.115 395.644C458.448 385.692 460.176 375.889 460.923 365.975C461.715 355.48 461.268 345.17 457.659 335.288C455.837 330.294 453.721 325.42 451.821 320.459C451.012 318.347 450.35 316.178 449.257 314.211C448.042 312.023 446.533 310.037 445.581 307.681C445.851 307.853 446.122 308.024 446.393 308.195Z" fill="#89C5CC"/>
<path fill-rule="evenodd" clip-rule="evenodd" d="M515.897 287.267C516.083 287.123 516.268 286.98 516.453 286.835C515.92 289.081 514.958 290.904 514.222 292.956C513.56 294.802 513.225 296.89 512.78 298.907C511.733 303.644 510.525 308.274 509.537 313.051C507.581 322.504 507.951 332.687 509.234 343.175C510.445 353.083 512.361 362.974 513.274 372.879C514.031 381.093 514.356 389.564 513.634 397.401C513.143 402.723 511.536 409.079 507.154 408.542C505.092 408.289 504.016 405.806 503.582 403.004C502.886 398.503 502.74 393.77 502.469 389.294C501.863 379.303 501.743 369.343 501.623 359.455C501.51 350.126 501.199 340.612 501.822 331.517C502.423 322.742 504.303 314.835 506.992 307.539C508.408 303.695 509.757 299.761 511.348 296.097C512.111 294.341 513.043 292.788 513.807 291.032C514.421 289.619 514.909 288.17 515.897 287.267Z" fill="#C1DEE2"/>
<path fill-rule="evenodd" clip-rule="evenodd" d="M448.257 337.117C449.055 335.777 450.811 340.194 451.078 340.75C450.965 340.473 450.851 340.197 450.737 339.922C452.321 342.556 453.77 345.297 454.67 348.316C455.561 351.306 456.327 354.356 457.163 357.366C458.733 363.014 460.758 368.502 462.179 374.202C463.565 379.755 463.914 385.215 463.578 390.959C463.23 396.929 463.016 402.992 463.423 408.959C463.618 411.809 464.544 414.464 465.178 417.207C465.814 419.954 466.314 422.737 467.065 425.449C467.238 425.096 467.259 426.277 467.259 426.366C467.254 427.044 467.16 427.612 466.942 428.255C466.382 429.908 465.334 431.311 463.739 431.767C460.858 432.59 458.181 429.969 457.252 427.2C455.919 423.228 455.184 418.839 454.548 414.664C453.966 410.836 453.828 406.984 454.001 403.104C454.343 395.45 455.727 387.896 456.102 380.245C456.509 371.915 454.859 364.088 453.478 355.98C452.813 352.073 452.176 348.203 450.881 344.481C450.356 342.973 449.672 341.643 448.956 340.251C448.548 339.46 447.723 338.047 448.257 337.117Z" fill="#C1DEE2"/>
<path fill-rule="evenodd" clip-rule="evenodd" d="M471.639 324.105C471.308 333.648 470.738 343.118 469.466 352.561C468.167 362.196 466.676 371.799 465.427 381.443C464.21 390.831 462.936 400.375 463.106 409.895C463.231 416.906 462.068 428.768 469.855 432.228C477.742 435.733 479.434 420.767 479.951 415.827C480.944 406.35 480.623 396.772 480.141 387.243C479.646 377.463 478.821 367.733 477.799 357.989C476.662 347.165 475.771 336.293 475.055 325.438C474.701 320.069 474.613 314.709 474.711 309.339C474.804 304.271 474.611 299.151 472.809 294.34C472.715 294.408 472.622 294.476 472.527 294.545" fill="#69A1AC"/>
<path fill-rule="evenodd" clip-rule="evenodd" d="M512.353 354.337C510.935 356.404 509.505 358.45 508.166 360.639C505.769 364.555 503.602 368.91 502.95 374.509C501.586 386.227 502.679 398.884 502.944 410.961C502.998 413.428 502.686 415.822 503.658 418.171C504.54 420.3 506.19 421.923 507.761 421.915C511.126 421.896 510.612 413.656 510.618 410.029C510.628 403.673 509.915 397.252 509.977 390.901C510.038 384.609 510.42 378.301 511.332 372.326C512.256 366.278 513.609 360.469 515.393 355.05C515.641 354.298 517.418 348.486 515.739 349.488" fill="#89C5CC"/>
<path fill-rule="evenodd" clip-rule="evenodd" d="M497.494 291.838C495.282 291.838 495.295 302.866 495.23 304.283C494.989 309.394 495.045 314.508 494.894 319.62C494.561 330.779 494.152 342.034 492.476 353.063C491.573 359 490.528 364.911 489.402 370.803C488.274 376.712 486.759 382.614 486.017 388.598C485.304 394.351 485.707 400.216 485.805 405.997C485.902 411.813 486.078 417.641 486.84 423.406C487.028 424.828 487.249 426.246 487.485 427.661C487.681 428.84 487.566 430.301 487.899 431.421C488.432 433.215 490.716 433.802 492.255 433.522C496.417 432.762 499.076 427.535 500.498 423.716C502.314 418.839 503.278 413.549 504.229 408.41C505.306 402.588 505.937 396.677 506.233 390.749C506.836 378.702 506.063 366.642 505.2 354.633C504.72 347.955 504.165 341.306 503.317 334.669C502.472 328.06 501.388 321.481 500.683 314.853C500.17 310.036 499.664 305.213 499.333 300.377C499.253 299.225 499.186 291.838 497.494 291.838Z" fill="#69A1AC"/>
<path fill-rule="evenodd" clip-rule="evenodd" d="M494.725 372.001C494.364 360.423 489.711 309.564 488.652 295.563C488.387 292.058 485.838 277.467 485.507 273.494C484.611 274.617 484.686 292.096 484.696 296.112C484.707 300.086 484.214 303.992 483.961 307.944C483.703 311.976 477.742 364.048 476.969 367.922C475.43 375.63 474.4 383.539 473.605 391.42C472.832 399.1 471.629 407.204 472.664 414.926C472.902 416.703 473.279 418.453 473.892 420.085C474.554 421.85 475.009 423.481 475.541 425.328C476.396 428.301 477.944 430.911 480.323 432.139C485.2 434.656 487.819 428.958 489.147 423.997C491.267 416.074 492.628 408.022 493.266 399.701C493.971 390.495 495.014 381.27 494.725 372.001Z" fill="#89C5CC"/>
<path d="M517.286 406.072H444.747C443.826 406.072 443.08 406.819 443.08 407.74V480.282C443.08 481.203 443.826 481.95 444.747 481.95H517.286C518.207 481.95 518.954 481.203 518.954 480.282V407.74C518.954 406.819 518.207 406.072 517.286 406.072Z" fill="white"/>
<path d="M441.412 414.41H436.409C435.488 414.41 434.742 415.157 434.742 416.078V506.965C434.742 507.886 435.488 508.632 436.409 508.632H441.412C442.333 508.632 443.08 507.886 443.08 506.965V416.078C443.08 415.157 442.333 414.41 441.412 414.41Z" fill="#10436A"/>
<path d="M483.101 414.41H478.099C477.178 414.41 476.431 415.157 476.431 416.078V506.965C476.431 507.886 477.178 508.632 478.099 508.632H483.101C484.022 508.632 484.769 507.886 484.769 506.965V416.078C484.769 415.157 484.022 414.41 483.101 414.41Z" fill="#10436A"/>
<path d="M525.624 414.41H520.622C519.701 414.41 518.954 415.157 518.954 416.078V506.965C518.954 507.886 519.701 508.632 520.622 508.632H525.624C526.545 508.632 527.292 507.886 527.292 506.965V416.078C527.292 415.157 526.545 414.41 525.624 414.41Z" fill="#10436A"/>
</svg>
